<svg width="48" height="48" viewBox="0 0 48 48" fill="#FFFFFF" xmlns="http://www.w3.org/2000/svg">
<path d="M2 0C1.46957 0 0.96086 0.210714 0.585787 0.585787C0.210714 0.96086 0 1.46957 0 2C0 2.53043 0.210714 3.03914 0.585787 3.41421C0.96086 3.78929 1.46957 4 2 4H2.984C3.41829 4.00075 3.84052 4.14284 4.18691 4.4048C4.5333 4.66675 4.78501 5.03433 4.904 5.452L11.248 27.652C11.6068 28.9048 12.3638 30.0068 13.4044 30.7912C14.4451 31.5757 15.7128 32 17.016 32H35.292C36.4914 32.0002 37.6633 31.6409 38.6565 30.9686C39.6497 30.2962 40.4186 29.3416 40.864 28.228L46.76 13.484C47.0024 12.8773 47.0925 12.2205 47.0224 11.5709C46.9523 10.9214 46.7242 10.2989 46.358 9.75784C45.9918 9.2168 45.4986 8.7737 44.9216 8.46728C44.3446 8.16085 43.7013 8.00041 43.048 8H9.792L8.748 4.352C8.3901 3.09909 7.63406 1.99674 6.59416 1.21159C5.55426 0.426427 4.28702 0.00113747 2.984 0H2ZM15.096 26.548L10.936 12H43.048L37.148 26.744C36.9994 27.1147 36.7432 27.4325 36.4124 27.6564C36.0817 27.8802 35.6914 27.9999 35.292 28H17.016C16.5817 27.9992 16.1595 27.8572 15.8131 27.5952C15.4667 27.3332 15.215 26.9657 15.096 26.548ZM18 48C18.7879 48 19.5681 47.8448 20.2961 47.5433C21.0241 47.2417 21.6855 46.7998 22.2426 46.2426C22.7998 45.6855 23.2417 45.0241 23.5433 44.2961C23.8448 43.5681 24 42.7879 24 42C24 41.2121 23.8448 40.4319 23.5433 39.7039C23.2417 38.9759 22.7998 38.3145 22.2426 37.7574C21.6855 37.2002 21.0241 36.7583 20.2961 36.4567C19.5681 36.1552 18.7879 36 18 36C16.4087 36 14.8826 36.6321 13.7574 37.7574C12.6321 38.8826 12 40.4087 12 42C12 43.5913 12.6321 45.1174 13.7574 46.2426C14.8826 47.3679 16.4087 48 18 48ZM18 44C17.4696 44 16.9609 43.7893 16.5858 43.4142C16.2107 43.0391 16 42.5304 16 42C16 41.4696 16.2107 40.9609 16.5858 40.5858C16.9609 40.2107 17.4696 40 18 40C18.5304 40 19.0391 40.2107 19.4142 40.5858C19.7893 40.9609 20 41.4696 20 42C20 42.5304 19.7893 43.0391 19.4142 43.4142C19.0391 43.7893 18.5304 44 18 44ZM34 48C34.7879 48 35.5681 47.8448 36.2961 47.5433C37.0241 47.2417 37.6855 46.7998 38.2426 46.2426C38.7998 45.6855 39.2417 45.0241 39.5433 44.2961C39.8448 43.5681 40 42.7879 40 42C40 41.2121 39.8448 40.4319 39.5433 39.7039C39.2417 38.9759 38.7998 38.3145 38.2426 37.7574C37.6855 37.2002 37.0241 36.7583 36.2961 36.4567C35.5681 36.1552 34.7879 36 34 36C32.4087 36 30.8826 36.6321 29.7574 37.7574C28.6321 38.8826 28 40.4087 28 42C28 43.5913 28.6321 45.1174 29.7574 46.2426C30.8826 47.3679 32.4087 48 34 48ZM34 44C33.4696 44 32.9609 43.7893 32.5858 43.4142C32.2107 43.0391 32 42.5304 32 42C32 41.4696 32.2107 40.9609 32.5858 40.5858C32.9609 40.2107 33.4696 40 34 40C34.5304 40 35.0391 40.2107 35.4142 40.5858C35.7893 40.9609 36 41.4696 36 42C36 42.5304 35.7893 43.0391 35.4142 43.4142C35.0391 43.7893 34.5304 44 34 44Z" fill="#1A1A1A"/>
</svg>
