<svg width="24" height="24" viewBox="0 0 24 24" fill="none" xmlns="http://www.w3.org/2000/svg">
<path fill-rule="evenodd" clip-rule="evenodd" d="M12 15.4501C13.9054 15.4501 15.45 13.9055 15.45 12.0001C15.45 10.0947 13.9054 8.5501 12 8.5501C10.0946 8.5501 8.54998 10.0947 8.54998 12.0001C8.54998 13.9055 10.0946 15.4501 12 15.4501ZM12 17.2501C14.8995 17.2501 17.25 14.8996 17.25 12.0001C17.25 9.1006 14.8995 6.7501 12 6.7501C9.10048 6.7501 6.74998 9.1006 6.74998 12.0001C6.74998 14.8996 9.10048 17.2501 12 17.2501Z" fill="#2990FF"/>
<path fill-rule="evenodd" clip-rule="evenodd" d="M12 1.1001C12.497 1.1001 12.9 1.50304 12.9 2.0001V3.73923C12.9 4.23628 12.497 4.63923 12 4.63923C11.5029 4.63923 11.1 4.23628 11.1 3.73923V2.0001C11.1 1.50304 11.5029 1.1001 12 1.1001ZM3.97228 3.9724C4.32375 3.62093 4.8936 3.62093 5.24507 3.9724L6.54942 5.27674C6.90089 5.62822 6.90089 6.19807 6.54942 6.54954C6.19794 6.90101 5.62809 6.90101 5.27662 6.54954L3.97228 5.24519C3.6208 4.89372 3.6208 4.32387 3.97228 3.9724ZM20.0277 3.9724C20.3791 4.32387 20.3791 4.89372 20.0277 5.24519L18.7233 6.54954C18.3719 6.90101 17.802 6.90101 17.4505 6.54954C17.0991 6.19807 17.0991 5.62822 17.4505 5.27674L18.7549 3.9724C19.1064 3.62093 19.6762 3.62093 20.0277 3.9724ZM1.09998 12.0001C1.09998 11.503 1.50292 11.1001 1.99998 11.1001H3.73911C4.23616 11.1001 4.63911 11.503 4.63911 12.0001C4.63911 12.4972 4.23616 12.9001 3.73911 12.9001H1.99998C1.50292 12.9001 1.09998 12.4972 1.09998 12.0001ZM19.3608 12.0001C19.3608 11.503 19.7638 11.1001 20.2608 11.1001H22C22.497 11.1001 22.9 11.503 22.9 12.0001C22.9 12.4972 22.497 12.9001 22 12.9001H20.2608C19.7638 12.9001 19.3608 12.4972 19.3608 12.0001ZM6.54942 17.4507C6.90089 17.8021 6.90089 18.372 6.54942 18.7234L5.24507 20.0278C4.8936 20.3793 4.32375 20.3793 3.97228 20.0278C3.6208 19.6763 3.6208 19.1065 3.97228 18.755L5.27662 17.4507C5.62809 17.0992 6.19794 17.0992 6.54942 17.4507ZM17.4505 17.4507C17.802 17.0992 18.3719 17.0992 18.7233 17.4507L20.0277 18.755C20.3791 19.1065 20.3791 19.6763 20.0277 20.0278C19.6762 20.3793 19.1064 20.3793 18.7549 20.0278L17.4505 18.7234C17.0991 18.372 17.0991 17.8021 17.4505 17.4507ZM12 19.361C12.497 19.361 12.9 19.7639 12.9 20.261V22.0001C12.9 22.4972 12.497 22.9001 12 22.9001C11.5029 22.9001 11.1 22.4972 11.1 22.0001V20.261C11.1 19.7639 11.5029 19.361 12 19.361Z" fill="#2990FF"/>
</svg>
