<?xml version="1.0" standalone="no"?>
<!DOCTYPE svg PUBLIC "-//W3C//DTD SVG 20010904//EN"
 "http://www.w3.org/TR/2001/REC-SVG-20010904/DTD/svg10.dtd">
<svg version="1.0" xmlns="http://www.w3.org/2000/svg"
 width="5000.000000pt" height="5000.000000pt" viewBox="0 0 5000.000000 5000.000000"
 preserveAspectRatio="xMidYMid meet">

<g transform="translate(0.000000,5000.000000) scale(0.100000,-0.100000)"
fill="#000000" stroke="none">
<path d="M0 25000 l0 -25000 25000 0 25000 0 0 25000 0 25000 -25000 0 -25000
0 0 -25000z m25820 16150 c415 -22 780 -54 1160 -101 3905 -480 7501 -2411
10176 -5465 2200 -2511 3630 -5638 4109 -8984 108 -760 159 -1404 181 -2323 6
-252 7 -257 28 -262 11 -2 188 -22 392 -45 379 -41 468 -58 603 -113 199 -82
390 -234 530 -422 29 -38 79 -124 112 -190 98 -199 141 -390 138 -616 -1 -69
1 -130 4 -136 9 -14 95 -341 128 -488 346 -1508 446 -3232 283 -4855 -172
-1720 -624 -3343 -1351 -4855 -137 -284 -143 -299 -167 -430 -22 -114 -83
-277 -143 -380 -183 -316 -483 -537 -833 -610 -174 -37 -211 -35 -1245 79
-528 58 -1270 140 -1650 182 -379 42 -692 78 -694 80 -4 4 35 413 224 2334
151 1535 178 1806 214 2180 22 223 72 727 110 1120 39 393 174 1770 301 3060
127 1290 276 2804 331 3365 l101 1020 -6 210 c-87 2891 -987 5650 -2610 7995
-182 263 -395 550 -575 774 -75 93 -147 183 -161 200 -412 515 -1122 1238
-1703 1738 -1039 892 -2220 1634 -3472 2180 -1403 612 -2892 970 -4475 1075
-327 21 -1240 24 -1535 5 -592 -39 -967 -81 -1456 -162 -1679 -279 -3285 -879
-4759 -1778 -2248 -1371 -4084 -3375 -5294 -5782 -666 -1322 -1121 -2714
-1370 -4190 -101 -593 -178 -1332 -192 -1845 -6 -197 -5 -210 60 -815 58 -546
241 -2270 266 -2520 6 -52 39 -369 75 -705 35 -335 108 -1017 160 -1515 223
-2117 351 -3324 430 -4075 47 -440 150 -1421 230 -2180 79 -759 146 -1390 148
-1402 5 -25 8 -24 -178 -42 -281 -28 -1707 -175 -2450 -253 -732 -76 -859 -83
-1007 -54 -174 33 -343 105 -488 207 -105 74 -246 219 -316 326 -51 76 -63 89
-78 81 -15 -8 -28 14 -105 174 -712 1476 -1239 3058 -1505 4519 -153 839 -222
1532 -233 2349 -8 596 16 1079 78 1595 101 846 309 1695 556 2280 l55 130 3
145 c4 210 51 414 135 581 81 159 249 361 380 456 148 107 331 188 490 217 70
13 640 76 686 76 11 0 14 27 14 128 0 275 32 854 71 1277 408 4480 2502 8606
5844 11516 2304 2006 5109 3317 8070 3773 647 99 1244 154 1985 180 170 6
1000 -4 1190 -14z m-12944 -16461 c479 -66 898 -447 1023 -929 35 -135 25 -41
186 -1730 69 -723 155 -1621 191 -1995 35 -374 103 -1078 149 -1565 162 -1699
275 -2880 340 -3560 209 -2184 198 -2046 170 -2233 -69 -456 -395 -857 -820
-1010 -113 -40 -203 -56 -500 -86 -154 -16 -281 -28 -282 -27 -2 2 -39 332
-163 1471 -55 506 -121 1105 -146 1330 -24 226 -60 552 -79 725 -45 413 -224
2047 -675 6165 -202 1854 -365 3373 -362 3376 12 11 671 77 784 78 59 0 141
-4 184 -10z m24964 -275 c140 -15 258 -30 262 -33 4 -4 -3 -112 -17 -241 -25
-245 -56 -543 -181 -1750 -41 -399 -81 -788 -89 -865 -8 -77 -44 -426 -80
-775 -36 -349 -113 -1089 -170 -1645 -57 -555 -152 -1471 -210 -2035 -58 -564
-135 -1304 -170 -1645 -35 -341 -76 -732 -90 -870 -14 -137 -50 -486 -80 -775
-30 -289 -100 -964 -155 -1500 -56 -536 -102 -975 -103 -976 -5 -3 -506 55
-565 65 -91 17 -204 57 -307 108 -352 175 -611 531 -681 933 -24 140 -14 360
40 870 25 239 84 813 131 1275 107 1052 354 3467 400 3920 19 187 51 495 70
685 20 190 49 476 65 635 16 160 77 756 135 1325 58 569 121 1186 140 1370 19
184 46 450 60 590 37 373 70 510 168 694 160 301 435 527 753 621 177 52 318
56 674 19z"/>
</g>
</svg>
