<svg width="24" height="24" viewBox="0 0 24 24" fill="none" xmlns="http://www.w3.org/2000/svg">
<path fill-rule="evenodd" clip-rule="evenodd" d="M9.14646 15.4489C12.0985 15.4489 14.6995 12.8467 14.6995 9.37112C14.6995 8.58687 14.5642 7.84234 14.3207 7.16089C14.0194 6.31769 14.3172 5.4699 14.8797 4.96926C15.4633 4.4499 16.4196 4.24165 17.2611 4.76147C20.0067 6.45734 21.8009 9.59243 21.8009 13.1224C21.8009 18.3485 17.8179 22.8002 12.6479 22.8002C9.1801 22.8002 6.2204 20.7719 4.67452 17.8789C4.20728 17.0045 4.47963 16.0701 5.01853 15.5255C5.5387 14.9998 6.39074 14.7367 7.22036 15.0732C7.81986 15.3163 8.46769 15.4489 9.14646 15.4489ZM7.67362 18.9241C7.49237 18.7456 7.3195 18.5575 7.15572 18.3605C6.85792 18.0024 6.59018 17.6149 6.35674 17.2027C6.32453 17.1458 6.29298 17.0884 6.26209 17.0306C6.16774 16.854 6.35836 16.666 6.54388 16.7412C6.59356 16.7614 6.6435 16.781 6.69369 16.8C7.11981 16.9615 7.56399 17.0821 8.02209 17.1574C8.19623 17.186 8.37238 17.2081 8.55033 17.2234C8.74695 17.2403 8.94577 17.2489 9.14646 17.2489C13.2075 17.2489 16.4995 13.7219 16.4995 9.37112C16.4995 9.15208 16.4911 8.93513 16.4747 8.72061C16.4575 8.49449 16.4313 8.27108 16.3966 8.05076C16.3232 7.58453 16.2115 7.13221 16.0652 6.69764C16.0491 6.64994 16.0327 6.60246 16.0158 6.5552C15.9484 6.36668 16.1449 6.18768 16.3152 6.29288C16.3678 6.32535 16.4199 6.35849 16.4717 6.3923C16.868 6.65133 17.2397 6.94942 17.582 7.28158C17.8014 7.49443 18.0087 7.72127 18.2028 7.96078C19.3229 9.34326 20.0009 11.148 20.0009 13.1224C20.0009 17.4732 16.7089 21.0002 12.6479 21.0002C10.7295 21.0002 8.98282 20.2132 7.67362 18.9241Z" fill="#2990FF"/>
<path d="M8.68203 7.86228C8.78069 7.59568 8.83002 7.46238 8.90189 7.42436C8.96415 7.39142 9.03867 7.39142 9.10093 7.42436C9.1728 7.46238 9.22213 7.59568 9.32079 7.86228L9.62244 8.67744C9.64243 8.73145 9.65242 8.75846 9.66834 8.7811C9.68245 8.80115 9.69992 8.81862 9.71998 8.83273C9.74261 8.84865 9.76962 8.85865 9.82364 8.87863L10.6388 9.18025C10.9054 9.27891 11.0387 9.32823 11.0768 9.40011C11.1097 9.46237 11.1097 9.53689 11.0768 9.59915C11.0387 9.67103 10.9054 9.72036 10.6388 9.81902L9.82364 10.1206C9.76962 10.1406 9.74261 10.1506 9.71998 10.1665C9.69992 10.1806 9.68245 10.1981 9.66834 10.2182C9.65242 10.2408 9.64243 10.2678 9.62244 10.3218L9.32079 11.137C9.22213 11.4036 9.1728 11.5369 9.10093 11.5749C9.03867 11.6078 8.96415 11.6078 8.90189 11.5749C8.83002 11.5369 8.78069 11.4036 8.68203 11.137L8.38038 10.3218C8.36039 10.2678 8.3504 10.2408 8.33448 10.2182C8.32037 10.1981 8.3029 10.1806 8.28284 10.1665C8.2602 10.1506 8.2332 10.1406 8.17918 10.1206L7.36403 9.81902C7.0974 9.72036 6.96409 9.67103 6.92607 9.59915C6.89313 9.53689 6.89313 9.46237 6.92607 9.40011C6.96409 9.32823 7.0974 9.27891 7.36403 9.18025L8.17918 8.87863C8.2332 8.85865 8.2602 8.84865 8.28284 8.83273C8.3029 8.81862 8.32037 8.80115 8.33448 8.7811C8.3504 8.75846 8.36039 8.73145 8.38038 8.67744L8.68203 7.86228Z" fill="#2990FF"/>
<path d="M4.68134 2.86229C4.78 2.59568 4.82933 2.46238 4.9012 2.42436C4.96346 2.39142 5.03798 2.39142 5.10024 2.42436C5.17212 2.46238 5.22145 2.59568 5.3201 2.86229L5.75683 4.04245C5.77681 4.09647 5.78681 4.12348 5.80273 4.14611C5.81684 4.16617 5.83431 4.18364 5.85437 4.19775C5.877 4.21367 5.90401 4.22366 5.95803 4.24365L7.1382 4.68033C7.40484 4.77899 7.53815 4.82832 7.57617 4.90019C7.60911 4.96245 7.60911 5.03698 7.57617 5.09924C7.53815 5.17111 7.40484 5.22044 7.13821 5.3191L5.95803 5.75578C5.90401 5.77577 5.877 5.78576 5.85437 5.80169C5.83431 5.81579 5.81684 5.83326 5.80273 5.85332C5.78681 5.87596 5.77681 5.90296 5.75683 5.95698L5.3201 7.13715C5.22145 7.40375 5.17212 7.53706 5.10024 7.57507C5.03798 7.60801 4.96346 7.60801 4.9012 7.57507C4.82933 7.53706 4.78 7.40375 4.68134 7.13715L4.24462 5.95698C4.22463 5.90296 4.21464 5.87596 4.19872 5.85332C4.18461 5.83326 4.16714 5.81579 4.14708 5.80169C4.12444 5.78576 4.09744 5.77577 4.04342 5.75578L2.86324 5.3191C2.59661 5.22044 2.4633 5.17111 2.42527 5.09924C2.39234 5.03698 2.39234 4.96245 2.42527 4.90019C2.4633 4.82832 2.59661 4.77899 2.86324 4.68033L4.04342 4.24365C4.09743 4.22366 4.12444 4.21367 4.14708 4.19775C4.16714 4.18364 4.18461 4.16617 4.19872 4.14611C4.21464 4.12348 4.22463 4.09647 4.24462 4.04245L4.68134 2.86229Z" fill="#2990FF"/>
</svg>
